<?xml version="1.0" encoding="utf-8"?>
<!-- Svg Vector Icons : http://www.onlinewebfonts.com/icon -->
<!DOCTYPE svg PUBLIC "-//W3C//DTD SVG 1.1//EN" "http://www.w3.org/Graphics/SVG/1.1/DTD/svg11.dtd">
<svg version="1.1" xmlns="http://www.w3.org/2000/svg" xmlns:xlink="http://www.w3.org/1999/xlink" x="0px" y="0px" viewBox="0 0 1000 1000" enable-background="new 0 0 1000 1000" xml:space="preserve">
<metadata> Svg Vector Icons : http://www.onlinewebfonts.com/icon </metadata>
<g><path d="M500,10C229.3,10,10,229.4,10,500c0,270.6,219.3,490,490,490c270.6,0,490-219.4,490-490C990,229.4,770.6,10,500,10z M500,914.6C270.9,914.6,85.3,729,85.3,500C85.3,271,270.9,85.4,500,85.4C729,85.4,914.6,271,914.6,500C914.6,729,729,914.6,500,914.6z"/><path d="M495.3,162.3C317.9,162.3,174,306.1,174,483.5c0,51.4,12.1,101.7,35.8,147.3c-4.1-21.2-6.3-43.2-6.3-65.8c0-172.4,127.3-312.6,285.6-316.3c50.1-1.3,98.9,13.2,139.9,41.7l100.6-26.6C671,201.3,587.8,162.3,495.3,162.3L495.3,162.3z"/><path d="M753.6,316.3l-196.9,58.9c-34.7-18.3-76.4-23.4-116.8-10.8c-80.7,25-125.8,110.7-100.7,191.4c25,80.7,110.7,125.8,191.5,100.8c67.3-20.9,109.9-84.2,107.5-151.5l140.8-148.4L753.6,316.3z M523.8,571.8c-33.9,21.2-78.6,11-99.8-22.9c-21.3-33.9-11-78.5,22.9-99.8c33.9-21.3,78.5-11,99.8,22.9C568,505.9,557.7,550.6,523.8,571.8z"/></g>
</svg>