<svg xmlns="http://www.w3.org/2000/svg" width="27.106" height="31.938" viewBox="0 0 27.106 31.938">
    <g id="ic_washing" transform="translate(-2.006)">
        <path id="Shape"
              d="M26.5,31.937H.6a.6.6,0,0,1-.6-.6V2.409A2.412,2.412,0,0,1,2.409,0H24.7a2.412,2.412,0,0,1,2.409,2.409V31.335A.6.6,0,0,1,26.5,31.937ZM1.205,6.024V30.732H25.9V6.024H24.113a.6.6,0,0,1,0-1.205H25.9V2.409a1.206,1.206,0,0,0-1.2-1.2H2.409a1.206,1.206,0,0,0-1.2,1.2V4.819H21.7a.6.6,0,0,1,0,1.205Z"
              transform="translate(2.006)" fill="#020433"/>
        <path id="Shape-2" data-name="Shape"
              d="M9.964,19.927a9.963,9.963,0,1,1,9.963-9.963A9.975,9.975,0,0,1,9.964,19.927Zm0-18.722a8.756,8.756,0,1,0,8.117,12.046h-.55a2.4,2.4,0,0,1-.739-.116,7.529,7.529,0,1,1,0-6.344,2.409,2.409,0,0,1,.739-.116h.55a8.772,8.772,0,0,0-8.117-5.47Zm0,2.435a6.324,6.324,0,1,0,5.8,8.841,2.4,2.4,0,0,1-.645-1.638V9.086a2.4,2.4,0,0,1,.645-1.639A6.323,6.323,0,0,0,9.964,3.64ZM17.531,7.88a1.2,1.2,0,0,0-.671.205l-.028.02-.008.006a1.21,1.21,0,0,0-.5.974v1.757a1.209,1.209,0,0,0,.5.973l0,0a.259.259,0,0,1,.031.023,1.2,1.2,0,0,0,.671.2h.94a8.766,8.766,0,0,0,0-4.166Z"
              transform="translate(5.596 8.433)" fill="#020433"/>
        <path id="Shape-3" data-name="Shape" d="M2.4,1.2A1.2,1.2,0,1,0,1.2,2.4,1.2,1.2,0,0,0,2.4,1.2Z"
              transform="translate(23.101 1.82)" fill="#020433"/>
        <path id="Shape-4" data-name="Shape" d="M1.2,0A1.2,1.2,0,1,0,2.4,1.2,1.2,1.2,0,0,0,1.2,0Z"
              transform="translate(19.512 1.82)" fill="#020433"/>
        <path id="Shape-5" data-name="Shape" d="M6.024,0H.6a.6.6,0,0,0,0,1.2H6.024a.6.6,0,0,0,0-1.2Z"
              transform="translate(5.043 2.416)" fill="#020433"/>
        <path id="Shape-6" data-name="Shape" d="M1.763,0H.6a.6.6,0,0,0,0,1.2H1.763a.6.6,0,0,0,0-1.2Z"
              transform="translate(12.867 2.416)" fill="#020433"/>
        <path id="Shape-7" data-name="Shape"
              d="M5.145,0A5.151,5.151,0,0,0,0,5.145a.6.6,0,1,0,1.2,0A3.944,3.944,0,0,1,5.145,1.2a.6.6,0,1,0,0-1.2Z"
              transform="translate(10.414 13.252)" fill="#020433"/>
    </g>
</svg>
