<svg xmlns="http://www.w3.org/2000/svg" width="180" height="180" viewBox="0 0 180 180">
  <g id="Group_273" data-name="Group 273" transform="translate(-98 -218)">
    <path id="Path_24" data-name="Path 24" d="M272.339,183.451l-24.515-24.608,28.434-20.41a6.375,6.375,0,0,1,8.242.683l7.491,7.519a6.437,6.437,0,0,1,.68,8.273Zm0,0" transform="translate(-64.071 128.248)" fill="#e9e9e9"/>
    <path id="Path_25" data-name="Path 25" d="M322.033,146.636l-7.491-7.52a6.377,6.377,0,0,0-8.242-.683l-2.558,1.836,6.342,6.366a6.437,6.437,0,0,1,.68,8.273l-15.35,21.549,6.967,6.994,20.332-28.543a6.438,6.438,0,0,0-.68-8.273Zm0,0" transform="translate(-94.459 128.248)" fill="#e9e9e9"/>
    <path id="Path_26" data-name="Path 26" d="M221.721,185.745c-7.951,1.172-42.712,4.75-76.461-15.822a17.351,17.351,0,0,0-21.329,2.476L113.5,182.83,92.55,161.88l10.892-10.893a17.354,17.354,0,0,0,2.633-21.072c-19.586-33.441-17.276-68-16.388-76.147a5.063,5.063,0,0,1,8.6-3.022L224.632,177.1a5.125,5.125,0,0,1-2.911,8.649Zm0,0" transform="translate(32.955 186.899)" fill="#e9e9e9"/>
    <path id="Path_27" data-name="Path 27" d="M225.66,177.1,99.311,50.747a5.062,5.062,0,0,0-8.569,2.827L214.265,177.1a5.125,5.125,0,0,1-2.912,8.649c-1.806.266-5,.657-9.254.86a110.453,110.453,0,0,0,20.65-.86,5.125,5.125,0,0,0,2.911-8.649Zm0,0" transform="translate(31.928 186.898)" fill="#e9e9e9" opacity="0.34"/>
    <path id="Path_28" data-name="Path 28" d="M111.468,398.21H61.586l7.886-48.043a6.039,6.039,0,0,1,5.957-5.059h22.2a6.038,6.038,0,0,1,5.957,5.059Zm0,0" transform="translate(59.122 -8.647)" fill="#e9e9e9"/>
    <path id="Path_29" data-name="Path 29" d="M144.619,350.168a6.036,6.036,0,0,0-5.956-5.059H126.594a6.038,6.038,0,0,1,5.957,5.059l7.886,48.043h12.069Zm0,0" transform="translate(15.566 -8.647)" fill="#e9e9e9"/>
    <path id="Path_30" data-name="Path 30" d="M124.629,384.535a6.457,6.457,0,1,1-6.457-6.457A6.457,6.457,0,0,1,124.629,384.535Zm0,0" transform="translate(25.419 -27.637)" fill="#d9d9d9"/>
    <g id="Group_265" data-name="Group 265" transform="translate(221.188 218)">
      <path id="Path_31" data-name="Path 31" d="M360.691,0a2.765,2.765,0,1,0,0,5.531,48.57,48.57,0,0,1,48.515,48.515,2.765,2.765,0,1,0,5.531,0A54.108,54.108,0,0,0,360.691,0Zm0,0" transform="translate(-357.926)" fill="#e9e9e9"/>
      <path id="Path_32" data-name="Path 32" d="M360.691,30.906a2.765,2.765,0,1,0,0,5.531,37.162,37.162,0,0,1,37.119,37.119,2.765,2.765,0,0,0,5.531,0A42.7,42.7,0,0,0,360.691,30.906Zm0,0" transform="translate(-357.926 -19.51)" fill="#e9e9e9"/>
      <path id="Path_33" data-name="Path 33" d="M360.691,61.813a2.765,2.765,0,1,0,0,5.531,25.753,25.753,0,0,1,25.725,25.723,2.765,2.765,0,1,0,5.531,0A31.29,31.29,0,0,0,360.691,61.813Zm0,0" transform="translate(-357.926 -39.02)" fill="#e9e9e9"/>
      <path id="Path_34" data-name="Path 34" d="M360.691,92.715a2.765,2.765,0,1,0,0,5.531,14.345,14.345,0,0,1,14.329,14.329,2.765,2.765,0,0,0,5.531,0A19.882,19.882,0,0,0,360.691,92.715Zm0,0" transform="translate(-357.926 -58.528)" fill="#e9e9e9"/>
    </g>
    <path id="Path_35" data-name="Path 35" d="M178.551,492.49H1.449A1.485,1.485,0,0,1,0,490.97v-4.258a5.493,5.493,0,0,1,5.357-5.619H174.642A5.492,5.492,0,0,1,180,486.712v4.258a1.485,1.485,0,0,1-1.449,1.52Zm0,0" transform="translate(98 -94.49)" fill="#e9e9e9"/>
    <path id="Path_36" data-name="Path 36" d="M477.254,481.094H465.86a5.618,5.618,0,0,1,5.617,5.619v4.258a1.519,1.519,0,0,1-1.52,1.52h11.4a1.519,1.519,0,0,0,1.52-1.52v-4.258A5.619,5.619,0,0,0,477.254,481.094Zm0,0" transform="translate(-204.873 -94.49)" fill="#e9e9e9"/>
  </g>
</svg>
