<svg xmlns="http://www.w3.org/2000/svg" xmlns:xlink="http://www.w3.org/1999/xlink" width="690.921" height="708" viewBox="0 0 690.921 708">
  <defs>
    <clipPath id="clip-path">
      <rect id="Rectangle_1494" data-name="Rectangle 1494" width="690.921" height="708" fill="none"/>
    </clipPath>
    <clipPath id="clip-path-2">
      <ellipse id="Ellipse_626" data-name="Ellipse 626" cx="283.545" cy="435.831" rx="283.545" ry="435.831" fill="none" stroke="#323254" stroke-miterlimit="10" stroke-width="1.43"/>
    </clipPath>
  </defs>
  <g id="Group_271" data-name="Group 271" transform="translate(160 -57)">
    <g id="Asset_2" data-name="Asset 2" transform="translate(-160 57)">
      <g id="Layer_2" data-name="Layer 2">
        <g id="BACKGROUND_2" data-name="BACKGROUND 2">
          <g id="Group_268" data-name="Group 268" clip-path="url(#clip-path)">
            <rect id="Rectangle_1483" data-name="Rectangle 1483" width="690.921" height="708" fill="#8ddff4"/>
            <path id="Path_37" data-name="Path 37" d="M528.829,261.874c.431-9.9,3.826-18.927,9.191-24.442s12.091-6.89,18.206-3.722c5.866-9.033,14.039-13.6,22.309-12.455s15.784,7.867,20.51,18.36c5.137-3.429,11.035-2.834,15.837,1.6s7.917,12.153,8.363,20.734c0,.354,0,2.138,0,2.138-.345,3.508-2.3,6.108-4.606,6.131h-85.2c-2.308-.023-4.262-2.624-4.606-6.131C528.838,264.083,528.792,262.228,528.829,261.874Z" transform="translate(-106.086 91.97)" fill="#fbfaf6" opacity="0.4"/>
            <path id="Path_38" data-name="Path 38" d="M388.417,324.744c-.41-9.915-3.8-18.973-9.167-24.506s-12.107-6.911-18.23-3.729c-5.867-9.038-14.044-13.6-22.316-12.452s-15.785,7.89-20.5,18.4c-5.132-3.448-11.033-2.868-15.837,1.557s-7.921,12.148-8.363,20.731v2.124c.345,3.508,2.3,6.108,4.606,6.131h85.177c2.3-.035,4.254-2.63,4.606-6.131C388.389,326.868,388.444,325.113,388.417,324.744Z" transform="translate(-87.59 118.095)" fill="#fbfaf6" opacity="0.4"/>
            <path id="Path_39" data-name="Path 39" d="M387.757,193.265c-.417-9.911-3.807-18.96-9.174-24.491s-12.1-6.914-18.223-3.744c-5.866-9.033-14.039-13.6-22.309-12.455s-15.784,7.867-20.51,18.36c-5.137-3.429-11.035-2.834-15.837,1.6s-7.917,12.153-8.363,20.734c0,.34,0,2.138,0,2.138.348,3.5,2.3,6.1,4.606,6.131h85.177c2.3-.035,4.254-2.63,4.606-6.131C387.729,195.4,387.784,193.619,387.757,193.265Z" transform="translate(-87.538 63.399)" fill="#fbfaf6" opacity="0.4"/>
            <path id="Path_40" data-name="Path 40" d="M632.475,350.167c-.616-14.242-8.309-25.312-17.6-25.318a11.985,11.985,0,0,0-5.6,1.416c-4.963-7.654-11.882-11.522-18.885-10.559s-13.365,6.658-17.366,15.544c-4.35-2.9-9.346-2.4-13.411,1.354s-6.7,10.3-7.077,17.563c0,.3,0,1.812,0,1.812.287,2.978,1.947,5.187,3.906,5.2H628.56c1.959-.009,3.619-2.218,3.906-5.2C632.466,351.979,632.5,350.478,632.475,350.167Z" transform="translate(-107.955 131.273)" fill="#fbfaf6"/>
            <path id="Path_41" data-name="Path 41" d="M632.474,348.318a17.545,17.545,0,0,0-17.6-16.27,17.833,17.833,0,0,0-5.6.906c-5.06-4.673-10.874-7.058-16.776-6.882a23.759,23.759,0,0,0-19.475,10.1,14.925,14.925,0,0,0-5.859-1.2,14.61,14.61,0,0,0-14.629,13.353q-.021.58,0,1.161a3.952,3.952,0,0,0,3.906,3.342h72.114a3.915,3.915,0,0,0,3.906-3.342c.018-.386.021-.774.009-1.161Z" transform="translate(-107.954 135.642)" fill="#eeebef"/>
            <path id="Path_42" data-name="Path 42" d="M632.475,350.167c-.616-14.242-8.309-25.312-17.6-25.318a11.985,11.985,0,0,0-5.6,1.416c-4.963-7.654-11.882-11.522-18.885-10.559s-13.365,6.658-17.366,15.544c-4.35-2.9-9.346-2.4-13.411,1.354s-6.7,10.3-7.077,17.563c0,.3,0,1.812,0,1.812.287,2.978,1.947,5.187,3.906,5.2H628.56c1.959-.009,3.619-2.218,3.906-5.2C632.466,351.979,632.5,350.478,632.475,350.167Z" transform="translate(-107.955 131.273)" fill="none" stroke="#323254" stroke-miterlimit="10" stroke-width="1.14"/>
            <g id="Group_267" data-name="Group 267" transform="translate(61.916 426.542)" clip-path="url(#clip-path-2)">
              <ellipse id="Ellipse_624" data-name="Ellipse 624" cx="283.545" cy="435.831" rx="283.545" ry="435.831" fill="#0a8aae"/>
              <path id="Path_43" data-name="Path 43" d="M466.882,535.843l.433,15.364-1.9,7.547,1.9,8.864,9.258,5.565,12.345-6.584,3.584-12.107,5.951-7.321,3.224-11.328,15.09-4.248,9.719,14.726,8.448,8.128,1.842,8.411,2.414-1.5,2.45-8.043-2.285-5.041L527.582,531.6l1.281-5.211,5.767,4.758,10.391,12.135,1.667,8.921,4.606,8.5,1.842,6.584,3.427-.467,1.308-4.7-1.308-8.6,2.091-3.71,4.818-1.416,4.606.3,1.64-3.143,1.17-12.008,4.984-12.008,6.384-1.1,1.115,1.416-.719,2.294,2.358,4.984,4.136-2.11-.645-5.664,3-2.478,4.606-2.195,2.579,1.218-.921,3.738-2.819,5.112,1.105,2.832L605.8,538.6l-.516,7.08-10.6,1.869-8.6-5.848-6.716,3.257-7.72,3.3-5.979,5.1.1,4.021.157,6.712,6.9,8.5,10.133-1.062,7.84-1.175-.636,12.022-4.708,15.236H572.842l-17.5-6.967-6.605-.255-2.294,5.367-.995,5.494-12.234-9.728-10.8-4.432-1.723-4.106,3.012-7.561-2.5-6.344-3.574-1.416-8.742.92-11.35,2.28-4.956,3.667-5.638,4.248-6.283-1.416-3.786-1.289-1.354.977-1.935,6.1-8.7,10.549-1.548,9.912-7.324,8.085-9.912,31.378.921,6.938.451,9.912-2.091,13.325,3.123,12.885,8.19,17.474,14.2,12.517,13.9-1.416,15.771-7.646,7.619,6.4,4.09,2.662h4.228l4.56,10.8-2.239,12.319,4.321,12.4,6.1,20.036,1.3,13.905-3.759,14.967-1.253,12.461,4.311,13.48,4.053,21.849,5.325,20.489,2.9,16.341,4.984,5.267,9.7-3.129,8.531-1.9,13.422-22.939,1.686-15.236,7.37-9.53-.461-11.328-.58-6.174L602.717,799.3l-.341-21.056-4.035-16.992,6.191-20.277,15.827-20.6,8.632-16.284,2.414-14.7-1.842-3.7-10.134,4.63-6.872-.637-4.468-4.375-.083-5.947-14.215-27.541-9.562-35.485-4.394-13.763,8.181,7.675,12.317,28.731,9.387,32.965,6.964,6.882L638.3,666.568l14.472-16.822,1.971-16.312-9.691-9.346-10.815,4.9-5.242-6.783-5.168-18.79,4.735-2.832,8.19,11.654,5.417,4.248,7.37.142,4.753,7.08,13.339-.4,8.789-1.331,5.371,10.606,3.989,10.124,5.011.765,2.672-5.3,1.842,2.506-.451,16.652,5.583,25.488L704.2,696.8l1.115,2.747,2.764.949,4.606-9.827,2.515-22.118,16-21.707,1.9-5.664,8.291-3.186,3.233.623,2.368,7.321,4.136,7.689L751,664.1l2.064,2.832,5.186-6.032,2.579,19.98,1.373,20.8,6.836,17.728,5.315,7.292,2.331-3.186-10.7-25.913,1.474-16.256,8.356,9.912s3.869,5.9,4.394,6.329,5.426-5.664,5.426-5.664l4.772-6.23.083-16.3-8.171-15.576,5.527-11.243L795.659,644l7.241-4.489,8.641-3.3,9.949-14.372,3.547-12.574-.461-15.831s-3.685-12.574-3.685-13.24,4.551-7.732,4.514-8.5-3.924-2.832-3.924-2.832l-4.026-4.574v-5.112l5.905-6.882,2.837-.4,1.419,4.9,2.69.68,4.5-1.685,2.165,4.106-2.414,5.381,2.073,2.1h3.759l1.234,4.39-1.842,7.491,1.428,3.894s5.214-5.1,5.527-5.324,3.1-3.144,3.1-3.144l-2.46-9.091-3.971-9.912,6.449-6.485.433-7.151,4.993-4.97,3.62,2.195,17.043-24.44,4.606-23.222-.921-10.931-4.744-3.158-9.35-2.605.921-4.758,17.66-23.166h14.9s9.212-4.63,9.387-4.248,6.117,4.106,6.117,4.106l5.776-5.437s2.5-6.131,3.786-6.882,4.652-5.027,4.993-5.027,4.965-.255,5.343,0,3.685,3.568,3.685,3.568l5.122-3.682,2.635,3.682-5.168,10.068s-15.854,15.888-16.112,15.888-2.764,20.787-2.764,20.787l3.436,16.992,10.262-16.284c.258-.4,7.232-13.381,7.232-13.381s-1.29-9.53-1.207-10.054.857-8.227.857-8.227L946.7,443.7l5.021-1.175,13.091-3.1,15.79-12.277,7.02-3.3.4-3.37-3.841-7.76,1.29-3.441,3.961-.666,2.524-5.211,2.091-.51a21.815,21.815,0,0,0,2.625,2.393c.249,0,4.035.113,4.035.113s4.661,8.255,4.919,8.255l5.7-.269s4.017-8.5,4.855-8.864,0-8.085,0-8.085l-7.987-3.214h-4.385l-15.163-15.151-21.695-5.2-6.55,5.154-11.46-3.3-12.142.92-11.672-12.107H908.851l-9.8-9.912-5.96,3.285-10.253-6.457-5.371,1.558-3.068,4.531-6.117,4.375-10.133-2.648s-7.453,3.356-7.923,3.71-4.809-7.406-4.707-7.278-3.74-11.229-3.74-11.229H830.721l-7.831,4.333-4.763-2.407-5.924-3.6h-8.871l-11.211,1.657-2.4-.793-.258-3.129,11.055-9.657,2.156-9.176-8.7-6.372-8.291,1.416-5.205-3.427-2.828-5.1-7.14,2.506-3.445,5.664-5.26,3.71-4.21-.227-8.024,2.351-4.247,2.832L734.278,327.9l-2.4,5.1,1.29,5.338-.921,2.832L717.9,342.927l-.921,7.236,2.082,2.322-.193,3.908-9.332-7.009-4.606,5.423,1.6,5.041L708,362.355s-5.463-1.345-5.454-1.728-.636-9.133-.636-9.133l-1.842.538-2.764,5.749,1.5,7.207-.967,9.884-3.1-4.885-1.6-11.13,2.34-10.762h-8.927l-7.867,12.078-.921,7.278.092,5.961,2.93,3.313-.608,3.172-14.122-7-8.871-5.664-1.8,2.832,2.985,2.832,2.423,5.876-3.418,1.912-2.312-1.855-5.693,2.832-3.372-.793-2.764,2.917-1.363-.722v-4.149l-2.718.241-1.925,2.988-8.42,4.248-5.767,5.466-5.426-5.3-4.993.92-3.1,8.34s-6.716,4.9-7.066,4.9-10.032-2.322-10.032-2.322l9.046-4.092,1.732-9.147-14.463-11.512-10.051-1.076L572.455,362.4l-17.8,3.313-19.714,13.112-9.673,27.938-11.792,11.512-7.232,8.609-.516,10.847,2.837,9.8,5.979,5.168,8.245-8.807s4.228,15.137,4.293,15.335,3.878,5.126,3.878,5.126l7.01-.864,2.81-15.958,3.869-6.457-4.293-10.747,2.579-10.464,7.241-9.133,2.561-8.213,7.683-1.317,1.9,5.961-10.677,17.275-.6,9.331,5.758,6.33,13.1-3.965,3.344,4.248-15.062,6.514.553,4.319.829,5.806-2.847,2.832-3.187-3.809-3.685,6.669.092,8.836-4.689,2.832-3.906-1.7L530,478.736l-7.278-3.313-2.377-11.654-4.33-3.866s-2.045,3.738-2.128,4.135,3.473,12.206,3.473,12.206l-4.938,2.619-6.891,1.982-3.1,6.485-2.764,7.321-9.157,11.328-7.149,1.147-3.98,1.487.534,5.041,8.356,7.944-.295,15.236-13.975-2.662Z" transform="translate(-161.431 -298.734)" fill="#a9eafa"/>
              <path id="Path_44" data-name="Path 44" d="M465.44,440.632l1.6-13.41,5.2-3.837a20.225,20.225,0,0,1,4.007-.666c.129.269,2.718,6.23,2.718,6.23l-2.764,8.5-6.725,6.3Z" transform="translate(-163.01 -250.69)" fill="#a9eafa"/>
              <path id="Path_45" data-name="Path 45" d="M485.654,406.5l-8.024,7.873v10.733s3.823,6.627,4.017,6.669,3.28-.311,3.28-.311l1.244,6.145-3.3,3.214-2.257,6.853-.083,8.5s4.91,1.416,5.039,1.331,12.169-3.894,12.169-3.894l2.543-8.666-3.943-7.363-8.107-13.056s2.036-10.252,1.99-10.45S485.654,406.5,485.654,406.5Z" transform="translate(-163.97 -257.438)" fill="#a9eafa"/>
              <path id="Path_46" data-name="Path 46" d="M281.242,982.8l-22-13.608-6.495-30.685,7.37-48.852,8.6-60.732.682-30.133-14.8-21.24-15.5-36.646,3.786-30.133,6.661-17.955L239.086,685l-22.975-24.256-30.9-13.877-25.2-32.568L133.1,566.071l-15.182-40.653V503.881l-8.181-26.224L94.435,453.2,62.782,422.886l-22.248,6.5-16.2,15.434L10.244,422.829,4.109,407.522l1.713-10.266L0,384.823,5.822,379.6,2.515,363.753l18.323-16.992,45.49,7.632,33.266,6.046,18.83-7.179,23.86,14.783,18.01,3.144,7.526-4.5,11.819,4.177L182,365.453,194.462,350.3s5.527-3.922,7.195-3.554,10.382,10.677,10.382,10.677l10.309,3.016h10.419l5.97,10.422L227.921,388.42l-14.307,13.65-10.484,19.541,4.606,18.281,16.057,10.464,16.149,3.384,9.5-4.588-.755-22.5,3.685-17.389,16.25,3.214,6.1,19.7,11.221-10.337,7.167,17.318s12.068,17.488,12.2,17.7,6.246,11.328,6.246,11.328L297.557,485.1l-22.469,7.207,12.335,10.861L281.3,515.01l-15.661,17.473-8.042,13.409-1.078,14.16L246.3,574.893l-6.449,16.241,1.658,15.349-5.021-3.073-9.931-9.912-6.578-9.728-21.916,8.935L193.3,618.039l6.347,18.719,8.927,1.09,6.449-11.427,7.084-.793-1.585,17.714v7.264l9.82.269,3.022,4.248-.23,15.378,6.891,5.664,10.566,1.742,8.6-7.207,14.04-1.331,23.758,9.912,28.024,25.063,5.7,17.474,21.52,9.77,15.716,12.234L359.1,789.134l-7.37,24.653-19.963,13.126-8.549,31.421-17.448,20.249-19.613,27.06-6.4,31.945-1.741,14.018Z" transform="translate(-126.346 -282.305)" fill="#a9eafa"/>
              <path id="Path_47" data-name="Path 47" d="M287.82,318.643l22.975-24.6s30.05-21.24,30.64-20.121,12.824,4.644,12.824,4.644l10.051-12.008h22.745s22.736-1.7,23.657-1.912S428.74,275.71,428.74,275.71s-.1,13.523,0,13.409,7.545.382,7.545.382,7.969-7.278,9.5-7.08,5.187,9.275,5.187,9.275l-19.816,25.7,3.685,16.454s-6.78,14.259-5.97,17.275,3.685,11.852,3.445,13.962-8.954,19.4-8.954,19.4l-16.085,20.589-21.824,11.569L374.7,425.31l-5.3,29.3-15.8-3.313L342.5,425.31l-3.022-14.443,7.462-20.376-11.69-9.629-5.9-31.152L316.3,337.363l-15.421,3.7Z" transform="translate(-149.019 -316.448)" fill="#a9eafa"/>
              <path id="Path_48" data-name="Path 48" d="M214.76,295.865l19.355-15.137,33.21-10.747,24.127-1.09,9.986,1.416,5.555,7.689L286.3,298.074l-16.776,10.337-.267,9.912L254.8,327.187l2.045,6.145-17.577,2.294-6.559-10.662,3.187-8.907-13.349-4.715Z" transform="translate(-143.263 -314.683)" fill="#a9eafa"/>
              <path id="Path_49" data-name="Path 49" d="M262.1,358.513l-23.8-3.1-4.053-15.364,5.242-8.369,12.16.17,12.437-.17,15.081,17.842,12.059,5.664,4.2,11.47,11.055,10.422,7.619,8.737-2.764,7.151-6.2,1.331s-1.7,11.328-1.336,11.64-.387,10.535-.387,10.535l-10.861-3.908-12.4-8.5-1.548-5.82-10.668,5.565-3.16-9.8,11.239-5.3,4.661-13.863-7.821-8.213Z" transform="translate(-144.798 -288.563)" fill="#a9eafa"/>
              <path id="Path_50" data-name="Path 50" d="M128.615,339.453l-3.685,15.307,7.886,11.894,12.9-9.246,8.181,7.264,5.159,9.912s4.275,5.891,5.14,5.735,17.135.85,17.135.85l10.5-5.65L186.79,364.19l12.593-9.629,14.224-1.728,3.445-13.31h9.986l18.5-2.832,2.524-8.043-29.1-6.726-9.1-11.979-5.527-11.073-17.5,11.073-8.844-9.8-18.922,5.664-15.642,20.036Z" transform="translate(-136.187 -302.212)" fill="#a9eafa"/>
              <path id="Path_51" data-name="Path 51" d="M526.6,296.58l3.74,15.9,9.682,8.6,8.024,4.645,5.887-12.9,5.509,4.191,11.257-2.775-8.9-13.707,13.5-8.935-5.518-7.576-18.268,5.607Z" transform="translate(-167.828 -308.389)" fill="#a9eafa"/>
              <path id="Path_52" data-name="Path 52" d="M424.45,377.79l10.272-4.106h2.543l7.5-2.974,4.1,1.034,3.307,6.046-3.068,8.17-8.991,7.675-11.267-4.29Z" transform="translate(-159.781 -272.326)" fill="#a9eafa"/>
              <path id="Path_53" data-name="Path 53" d="M840.269,749.207,835,715.577l4.072-26.479,18.756-9.275,5.527-15.576,5.684-6.06s9.01,3.922,9.728,2.719,6.393-14.245,6.393-14.245h9.47s3.98,17.275,4.486,17.289,7.747,5.551,7.747,5.551l8.291-22.84,4.477,7.788,5.841,20.971,16.757,26.437,2.552,16.681-1.769,29.651-5.6,14.826-8.65,8.213-20.5-2.69-8.438-19.286-7.6-5.664-9.212-7.08-22.506,11.172-11.055,3.951Z" transform="translate(-192.121 -157.531)" fill="#a9eafa"/>
              <path id="Path_54" data-name="Path 54" d="M779.74,595.1l14.012,33.276,7.582,13.48,7.287-1.317V627.7l-7.112-10.705-16.941-20.574Z" transform="translate(-187.768 -178.98)" fill="#a9eafa"/>
              <path id="Path_55" data-name="Path 55" d="M811.09,632.674l8.015-3.214,14.077,2.974,15.283,3.186,4.993,5.4-5.859,2.761-18.821-1.359Z" transform="translate(-190.237 -164.686)" fill="#a9eafa"/>
              <path id="Path_56" data-name="Path 56" d="M819.79,611.141l9.507-10.054,5.177-1.331,5.537-6.967,7.333,1.246-2.174,12.73,2.791,6.8-7.269,18.422L831.7,634.35l-8.558-9.558Z" transform="translate(-190.923 -179.941)" fill="#a9eafa"/>
              <path id="Path_57" data-name="Path 57" d="M858.339,553.54,853.65,572.1l5.315,13.622-.626,12.234,4.459,5.154,5.334,8.213L870.674,601l.24-9.162-6.2-9.3-1.059-8.822-1.916-10.054Z" transform="translate(-193.59 -196.269)" fill="#a9eafa"/>
              <path id="Path_58" data-name="Path 58" d="M887.07,610.56l11.092,8.581,8.982-1.742,19.963,10.04,7.748,9.884,4.827,15.661-.857,7.632-11.211-15.548-11.469,4.616-9.544-2.252-3.786-18.167-10.981-4.234Z" transform="translate(-196.222 -172.549)" fill="#a9eafa"/>
              <ellipse id="Ellipse_625" data-name="Ellipse 625" cx="116.674" cy="24.893" rx="116.674" ry="24.893" transform="translate(164.255 -3.37)" fill="#0a8aae" opacity="0.5"/>
              <path id="Path_59" data-name="Path 59" d="M224.756,840.84c0-253.464,133.67-458.911,298.57-458.911,33.974-.046,67.7,8.833,99.732,26.253-55.039-77.95-127.167-121.158-202.007-121.011-164.9,0-298.561,205.462-298.561,458.911,0,199.656,82.984,369.576,198.829,432.659-61.616-86.808-96.657-209.427-96.563-337.9Z" transform="translate(-135.995 -307.079)" fill="#0a8aae" opacity="0.5"/>
            </g>
            <ellipse id="Ellipse_627" data-name="Ellipse 627" cx="283.545" cy="435.831" rx="283.545" ry="435.831" transform="translate(61.916 426.542)" fill="none" stroke="#323254" stroke-miterlimit="10" stroke-width="1.43"/>
            <path id="Path_60" data-name="Path 60" d="M395.887,255.649h0c-.3.227-.659.044-.811-.411l-31.782-95.254a1.374,1.374,0,0,1-.04-.706.921.921,0,0,1,.3-.54h0c.3-.221.652-.047.811.4L396.182,254.4a1.379,1.379,0,0,1,.025.719.872.872,0,0,1-.32.527Z" transform="translate(-93.043 65.995)" fill="#323254"/>
            <path id="Path_61" data-name="Path 61" d="M347.631,195.84c-.193,3.172-3.464,5.848-7.3,6.542s-6.789-1.416-6.6-4.517" transform="translate(-90.719 81.469)" fill="#ea5c87" stroke="#323254" stroke-linecap="round" stroke-linejoin="round" stroke-width="1.14"/>
            <path id="Path_62" data-name="Path 62" d="M374.782,184.68c.553,2.832-4.781,9.246-11.976,13.452s-13.413,5.239-13.966,2.351" transform="translate(-91.909 76.827)" fill="#fbfaf6" stroke="#323254" stroke-linecap="round" stroke-linejoin="round" stroke-width="1.14"/>
            <path id="Path_63" data-name="Path 63" d="M402.32,173.069c1.8,1.614,5.14-.878,7.738-5.268s3.132-9.147,1.336-10.762" transform="translate(-96.122 65.329)" fill="#fbfaf6" stroke="#323254" stroke-linecap="round" stroke-linejoin="round" stroke-width="1.14"/>
            <path id="Path_64" data-name="Path 64" d="M377,191.486c1.207,2.379,7.526-.453,13.957-7.08s10.576-13.707,9.369-16.086" transform="translate(-94.128 70.021)" fill="#ea5c87" stroke="#323254" stroke-linecap="round" stroke-linejoin="round" stroke-width="1.14"/>
            <path id="Path_65" data-name="Path 65" d="M364.111,164.65c-13.137,10.294-24.3,26.522-30.4,46.19,3.519.977,8.365.142,13.9-2.025C349.214,183.03,364,164.777,364.111,164.65Z" transform="translate(-90.718 68.494)" fill="#fbfaf6" stroke="#323254" stroke-linecap="round" stroke-linejoin="round" stroke-width="1.14"/>
            <path id="Path_66" data-name="Path 66" d="M408.59,157.408c-13.818-3.866-28.825.524-41.87,10.762.138,0,18.25-7.788,32.787,5.268C403.827,167.9,407.07,162.393,408.59,157.408Z" transform="translate(-93.318 64.904)" fill="#ea5c87" stroke="#323254" stroke-linecap="round" stroke-linejoin="round" stroke-width="1.14"/>
            <path id="Path_67" data-name="Path 67" d="M348.82,195.84Z" transform="translate(-91.908 81.469)" fill="#fff" stroke="#323254" stroke-linecap="round" stroke-linejoin="round" stroke-width="1.14"/>
            <path id="Path_68" data-name="Path 68" d="M402.32,168.37Z" transform="translate(-96.122 70.042)" fill="#fff" stroke="#323254" stroke-linecap="round" stroke-linejoin="round" stroke-width="1.14"/>
            <path id="Path_69" data-name="Path 69" d="M366.719,164.64h-.009v.014Z" transform="translate(-93.317 68.49)" fill="#fff" stroke="#323254" stroke-linecap="round" stroke-linejoin="round" stroke-width="1.14"/>
            <path id="Path_70" data-name="Path 70" d="M366.71,164.64v.014h0Z" transform="translate(-93.317 68.49)" fill="#fff" stroke="#323254" stroke-linecap="round" stroke-linejoin="round" stroke-width="1.14"/>
            <path id="Path_71" data-name="Path 71" d="M373.537,189.307,365.3,164.64h0c-.111.127-14.9,18.408-16.481,44.165h0a108.785,108.785,0,0,0,25.96-15.788Z" transform="translate(-91.908 68.49)" fill="#ea5c87" stroke="#323254" stroke-linecap="round" stroke-linejoin="round" stroke-width="1.14"/>
            <path id="Path_72" data-name="Path 72" d="M366.72,165.321h0l8.236,24.667,1.234,3.71A139.315,139.315,0,0,0,399.5,170.617h0C384.97,157.533,366.858,165.265,366.72,165.321Z" transform="translate(-93.318 67.809)" fill="#fbfaf6" stroke="#323254" stroke-linecap="round" stroke-linejoin="round" stroke-width="1.14"/>
            <path id="Path_73" data-name="Path 73" d="M352.08,215.332h0c-.709,0-1.285-.879-1.29-1.968v-8.241c0-1.095.577-1.982,1.29-1.982h0c.709.008,1.281.893,1.281,1.982v8.241C353.355,214.447,352.785,215.324,352.08,215.332Z" transform="translate(-92.063 84.506)" fill="#323254"/>
            <path id="Path_74" data-name="Path 74" d="M513.94,215.332h0c-.709,0-1.285-.879-1.29-1.968v-8.241c0-1.095.577-1.982,1.29-1.982h0c.712,0,1.29.888,1.29,1.982v8.241c-.005,1.089-.581,1.968-1.29,1.968Z" transform="translate(-104.813 84.506)" fill="#323254"/>
            <path id="Path_75" data-name="Path 75" d="M488.99,167.74Z" transform="translate(-102.949 69.78)" fill="none" stroke="#323254" stroke-linecap="round" stroke-linejoin="round" stroke-width="1.14"/>
            <path id="Path_76" data-name="Path 76" d="M488.306,193.285c-2.533,9.275-7.241,15.718-12.087,17.544,7.741,5,16.652-.6,19.9-12.5s-.389-25.6-8.13-30.593h0C490.536,174.339,490.84,184.024,488.306,193.285Z" transform="translate(-101.943 69.78)" fill="#ea5c87" stroke="#323254" stroke-linecap="round" stroke-linejoin="round" stroke-width="1.14"/>
            <path id="Path_77" data-name="Path 77" d="M467.289,180.768c-3.244,11.895.391,25.581,8.125,30.586-2.552-6.6-2.847-16.27-.313-25.488s7.241-15.8,12.1-17.587h0c-7.741-5-16.656.588-19.908,12.489Z" transform="translate(-101.146 69.241)" fill="#ea5c87" stroke="#323254" stroke-linecap="round" stroke-linejoin="round" stroke-width="1.14"/>
            <path id="Path_78" data-name="Path 78" d="M488.129,193.268c2.533-9.261,2.229-18.946-.322-25.488-4.846,1.827-9.553,8.269-12.086,17.544s-2.239,18.932.313,25.488h0C480.888,208.986,485.6,202.543,488.129,193.268Z" transform="translate(-101.765 69.796)" fill="#f8e780" stroke="#323254" stroke-linecap="round" stroke-linejoin="round" stroke-width="1.14"/>
            <rect id="Rectangle_1484" data-name="Rectangle 1484" width="62.312" height="28.731" rx="2.11" transform="translate(338.644 271.107)" fill="#0a8aae" stroke="#323254" stroke-miterlimit="10" stroke-width="1.14"/>
            <path id="Path_79" data-name="Path 79" d="M499,191.46v3.6c0,2.651,1.4,4.8,3.123,4.8h2.561" transform="translate(-103.738 79.647)" fill="none" stroke="#323254" stroke-miterlimit="10" stroke-width="1.14"/>
            <path id="Path_80" data-name="Path 80" d="M437.54,200.2h2.368a2.706,2.706,0,0,0,2.208-1.4,6.308,6.308,0,0,0,.915-3.389V191.46" transform="translate(-98.896 79.647)" fill="none" stroke="#323254" stroke-miterlimit="10" stroke-width="1.14"/>
            <path id="Path_81" data-name="Path 81" d="M443.215,214.244V210.59a6.321,6.321,0,0,0-.909-3.393,2.714,2.714,0,0,0-2.2-1.407H437.54" transform="translate(-98.896 85.609)" fill="none" stroke="#323254" stroke-miterlimit="10" stroke-width="1.14"/>
            <path id="Path_82" data-name="Path 82" d="M504.6,205.79h-2.377a2.714,2.714,0,0,0-2.2,1.407,6.32,6.32,0,0,0-.909,3.393v3.993" transform="translate(-103.746 85.609)" fill="none" stroke="#323254" stroke-miterlimit="10" stroke-width="1.14"/>
            <path id="Path_83" data-name="Path 83" d="M478.792,206.409H462.081c-1.289-.008-2.331-1.616-2.331-3.6h0c.005-1.975,1.046-3.575,2.331-3.582h16.711c1.289,0,2.335,1.6,2.34,3.582h0C481.132,204.8,480.084,206.409,478.792,206.409Z" transform="translate(-100.646 82.88)" fill="none" stroke="#323254" stroke-miterlimit="10" stroke-width="1.14"/>
            <path id="Path_84" data-name="Path 84" d="M491.115,208.582h0c-.934-.008-1.69-1.17-1.7-2.605V200.54c0-1.441.757-2.612,1.7-2.62h0c.941,0,1.7,1.173,1.7,2.62v5.437c-.005,1.441-.767,2.605-1.7,2.605Z" transform="translate(-102.983 82.335)" fill="#fbfaf6" stroke="#323254" stroke-miterlimit="10" stroke-width="1.14"/>
            <path id="Path_85" data-name="Path 85" d="M451.3,208.517h0c-.941,0-1.7-1.173-1.7-2.62V200.46c0-1.447.763-2.62,1.7-2.62h0c.938.008,1.7,1.178,1.7,2.62V205.9C453,207.338,452.242,208.509,451.3,208.517Z" transform="translate(-99.846 82.301)" fill="#fbfaf6" stroke="#323254" stroke-miterlimit="10" stroke-width="1.14"/>
            <rect id="Rectangle_1485" data-name="Rectangle 1485" width="62.312" height="28.731" rx="2.11" transform="translate(282.2 271.107)" fill="#eeebef" stroke="#323254" stroke-miterlimit="10" stroke-width="1.14"/>
            <path id="Path_86" data-name="Path 86" d="M437.74,191.46v3.6c0,2.651,1.4,4.8,3.123,4.8h2.561" transform="translate(-98.912 79.647)" fill="none" stroke="#323254" stroke-miterlimit="10" stroke-width="1.14"/>
            <path id="Path_87" data-name="Path 87" d="M376.27,200.2h2.377a2.706,2.706,0,0,0,2.208-1.4,6.308,6.308,0,0,0,.915-3.389V191.46" transform="translate(-94.07 79.647)" fill="none" stroke="#323254" stroke-miterlimit="10" stroke-width="1.14"/>
            <path id="Path_88" data-name="Path 88" d="M381.954,214.244V210.59a6.32,6.32,0,0,0-.909-3.393,2.715,2.715,0,0,0-2.205-1.407h-2.57" transform="translate(-94.07 85.609)" fill="none" stroke="#323254" stroke-miterlimit="10" stroke-width="1.14"/>
            <path id="Path_89" data-name="Path 89" d="M443.34,205.79h-2.377c-1.725,0-3.123,2.149-3.123,4.8v3.993" transform="translate(-98.92 85.609)" fill="none" stroke="#323254" stroke-miterlimit="10" stroke-width="1.14"/>
            <path id="Path_90" data-name="Path 90" d="M417.53,206.409H400.8c-1.289-.008-2.331-1.616-2.331-3.6h0c.005-1.975,1.046-3.575,2.331-3.582h16.711c1.289,0,2.335,1.6,2.34,3.582h0c0,1.975-1.036,3.581-2.322,3.6Z" transform="translate(-95.819 82.88)" fill="none" stroke="#323254" stroke-miterlimit="10" stroke-width="1.14"/>
            <path id="Path_91" data-name="Path 91" d="M429.854,208.583h0c-.938,0-1.7-1.164-1.7-2.605V200.54c0-1.447.763-2.62,1.7-2.62h0c.938.008,1.7,1.178,1.7,2.62v5.437c-.005,1.436-.761,2.6-1.7,2.605Z" transform="translate(-98.157 82.335)" fill="#ea5c87" stroke="#323254" stroke-miterlimit="10" stroke-width="1.14"/>
            <path id="Path_92" data-name="Path 92" d="M390.044,208.517h0c-.941,0-1.7-1.173-1.7-2.62V200.46c0-1.447.763-2.62,1.7-2.62h0c.938.008,1.7,1.178,1.7,2.62V205.9c0,1.441-.757,2.612-1.7,2.62Z" transform="translate(-95.021 82.301)" fill="#ea5c87" stroke="#323254" stroke-miterlimit="10" stroke-width="1.14"/>
            <rect id="Rectangle_1486" data-name="Rectangle 1486" width="53.247" height="24.553" rx="1.81" transform="translate(311.274 246.596)" fill="#f8e780" stroke="#323254" stroke-miterlimit="10" stroke-width="1.14"/>
            <path id="Path_93" data-name="Path 93" d="M460.36,174.15v3.115a5.405,5.405,0,0,0,.777,2.9,2.321,2.321,0,0,0,1.886,1.2h2.193" transform="translate(-100.694 72.446)" fill="none" stroke="#323254" stroke-miterlimit="10" stroke-width="1.14"/>
            <path id="Path_94" data-name="Path 94" d="M407.83,181.612h2c1.47,0,2.662-1.832,2.662-4.092v-3.37" transform="translate(-96.556 72.446)" fill="none" stroke="#323254" stroke-miterlimit="10" stroke-width="1.14"/>
            <path id="Path_95" data-name="Path 95" d="M412.685,193.612V190.5a5.405,5.405,0,0,0-.777-2.9,2.321,2.321,0,0,0-1.886-1.2H407.83" transform="translate(-96.556 77.538)" fill="none" stroke="#323254" stroke-miterlimit="10" stroke-width="1.14"/>
            <path id="Path_96" data-name="Path 96" d="M465.138,186.39h-2.027c-1.475,0-2.672,1.839-2.672,4.106v3.356" transform="translate(-100.7 77.538)" fill="none" stroke="#323254" stroke-miterlimit="10" stroke-width="1.14"/>
            <line id="Line_7" data-name="Line 7" x2="53.247" transform="translate(311.274 258.873)" fill="#0a8aae" stroke="#323254" stroke-miterlimit="10" stroke-width="1.14"/>
            <path id="Path_97" data-name="Path 97" d="M443.09,186.925H428.829c-1.1-.008-1.994-1.379-2-3.073h0c.005-1.694.9-3.065,2-3.073h14.279c1.1.008,1.994,1.379,2,3.073h0c-.005,1.7-.908,3.081-2.017,3.073Z" transform="translate(-98.053 75.204)" fill="#f8e780" stroke="#323254" stroke-miterlimit="10" stroke-width="1.14"/>
            <path id="Path_98" data-name="Path 98" d="M453.616,188.775h0a1.253,1.253,0,0,1-1.029-.646,2.928,2.928,0,0,1-.427-1.577v-4.659c.005-1.23.655-2.223,1.456-2.223h0c.8,0,1.45.993,1.455,2.223v4.659a2.928,2.928,0,0,1-.427,1.577,1.253,1.253,0,0,1-1.029.646Z" transform="translate(-100.048 74.743)" fill="#fbfaf6" stroke="#323254" stroke-miterlimit="10" stroke-width="1.14"/>
            <path id="Path_99" data-name="Path 99" d="M419.6,188.679h0c-.8,0-1.456-1-1.456-2.237V181.8c0-1.236.652-2.237,1.456-2.237h0c.8,0,1.456,1,1.456,2.237v4.644C421.051,187.677,420.4,188.679,419.6,188.679Z" transform="translate(-97.368 74.697)" fill="#fbfaf6" stroke="#323254" stroke-miterlimit="10" stroke-width="1.14"/>
            <ellipse id="Ellipse_628" data-name="Ellipse 628" cx="18.038" cy="27.725" rx="18.038" ry="27.725" transform="translate(270.666 402.64)" fill="#323254" stroke="#323254" stroke-miterlimit="10" stroke-width="0.43"/>
            <path id="Path_121" data-name="Path 121" d="M11.057-.158c5.112-1.082,8.378,2.185,7.3,7.3A15.782,15.782,0,0,1,7.138,18.353c-5.112,1.082-8.378-2.185-7.3-7.3A15.782,15.782,0,0,1,11.057-.158Z" transform="translate(275.837 430.358) rotate(-45)" fill="#eeebef"/>
            <path id="Path_100" data-name="Path 100" d="M519.3,222.42H328.131s-11.331,66.3-2.091,119.44h28.945l4.182-12.546h38.9l4.182,12.546H544.6S547.135,269.743,519.3,222.42Z" transform="translate(-89.828 92.527)" fill="#fbfaf6" stroke="#323254" stroke-miterlimit="10" stroke-width="1.14"/>
            <path id="Path_101" data-name="Path 101" d="M525.338,226.859H324.51c.015-8.329,4.4-15.078,9.82-15.109H515.508c5.422.023,9.814,6.774,9.83,15.109Z" transform="translate(-89.993 88.088)" fill="#fff" stroke="#323254" stroke-miterlimit="10" stroke-width="1.14"/>
            <path id="Path_102" data-name="Path 102" d="M348.946,318.678H328.182c-3.469-.008-6.282-4.325-6.292-9.657h0c.01-5.335,2.821-9.656,6.292-9.671h20.764c3.471.016,6.282,4.336,6.292,9.671h0C355.223,314.351,352.414,318.663,348.946,318.678Z" transform="translate(-89.786 124.53)" fill="#fff" stroke="#323254" stroke-miterlimit="10" stroke-width="1.14"/>
            <path id="Path_103" data-name="Path 103" d="M562.577,318.678H544.152c-3.469-.008-6.282-4.325-6.292-9.657h0c.01-5.335,2.821-9.656,6.292-9.671h18.425c3.471.016,6.282,4.336,6.292,9.671h0c-.01,5.332-2.823,9.649-6.292,9.657Z" transform="translate(-106.799 124.53)" fill="#fff" stroke="#323254" stroke-miterlimit="10" stroke-width="1.14"/>
            <ellipse id="Ellipse_630" data-name="Ellipse 630" cx="18.038" cy="27.725" rx="18.038" ry="27.725" transform="translate(394.47 402.64)" fill="#323254" stroke="#323254" stroke-miterlimit="10" stroke-width="0.43"/>
            <rect id="Rectangle_1487" data-name="Rectangle 1487" width="163.85" height="3.228" rx="0.94" transform="translate(253.006 288.779)" fill="#323254"/>
            <rect id="Rectangle_1488" data-name="Rectangle 1488" width="83.076" height="8.057" rx="2.84" transform="translate(311.394 430.365)" fill="#fff" stroke="#323254" stroke-miterlimit="10" stroke-width="1.14"/>
            <rect id="Rectangle_1489" data-name="Rectangle 1489" width="28.567" height="38.26" rx="5.55" transform="translate(275.761 319.535)" fill="#323254" stroke="#323254" stroke-miterlimit="10" stroke-width="0.88"/>
            <rect id="Rectangle_1490" data-name="Rectangle 1490" width="22.119" height="29.623" rx="4.29" transform="translate(282.2 328.172)" fill="#0a8aae" stroke="#323254" stroke-miterlimit="10" stroke-width="0.88"/>
            <rect id="Rectangle_1491" data-name="Rectangle 1491" width="28.567" height="38.26" rx="5.55" transform="translate(309.818 319.535)" fill="#323254" stroke="#323254" stroke-miterlimit="10" stroke-width="0.88"/>
            <rect id="Rectangle_1492" data-name="Rectangle 1492" width="22.119" height="29.623" rx="4.29" transform="translate(316.267 328.172)" fill="#0a8aae" stroke="#323254" stroke-miterlimit="10" stroke-width="0.88"/>
            <rect id="Rectangle_1493" data-name="Rectangle 1493" width="28.567" height="38.26" rx="5.55" transform="translate(343.885 319.535)" fill="#323254" stroke="#323254" stroke-miterlimit="10" stroke-width="0.88"/>
            <path id="Path_104" data-name="Path 104" d="M454.192,231.76H468.4c2.188,0,3.961,2.726,3.961,6.089v17.459c0,3.355-1.769,6.075-3.952,6.075H454.192c-2.183,0-3.952-2.72-3.952-6.075V237.835c0-3.355,1.769-6.075,3.952-6.075Z" transform="translate(-99.897 96.412)" fill="#0a8aae" stroke="#323254" stroke-miterlimit="10" stroke-width="0.88"/>
            <path id="Path_105" data-name="Path 105" d="M531.648,263.921H486.462c-3.471-.016-6.282-4.336-6.292-9.671V235.318c.01-5.333,2.823-9.649,6.292-9.657h38.811c.791-.06,1.505.726,1.723,1.9l6.329,33.007a3.788,3.788,0,0,1-.284,2.333,1.586,1.586,0,0,1-1.393,1.023Z" transform="translate(-102.254 93.874)" fill="#323254" stroke="#323254" stroke-miterlimit="10" stroke-width="0.88"/>
            <path id="Path_106" data-name="Path 106" d="M533.06,261.4H498.053c-2.689-.008-4.868-3.357-4.873-7.491V239.2c.01-4.128,2.188-7.469,4.873-7.476H528.1c.58-.005,1.094.568,1.271,1.416l4.9,25.559a2.97,2.97,0,0,1-.157,1.831,1.293,1.293,0,0,1-1.059.873Z" transform="translate(-103.279 96.396)" fill="#0a8aae" stroke="#323254" stroke-miterlimit="10" stroke-width="0.88"/>
            <path id="Path_107" data-name="Path 107" d="M552.8,263.92h-9.4c-1.115,0-2.1-1.1-2.451-2.733l-6.448-30.345a5.761,5.761,0,0,1,.36-3.549,2.464,2.464,0,0,1,2.081-1.634h1.594q3.829,7.387,7.038,15.463a209.9,209.9,0,0,1,7.222,22.8Z" transform="translate(-106.525 93.875)" fill="#323254" stroke="#323254" stroke-miterlimit="10" stroke-width="0.88"/>
            <path id="Path_108" data-name="Path 108" d="M553.253,261.383h-5.177c-.863,0-1.63-.848-1.9-2.11l-6.006-23.506a4.458,4.458,0,0,1,.283-2.749,1.9,1.9,0,0,1,1.615-1.259h1.225s2.764,6.131,4.606,11.328A138.723,138.723,0,0,1,553.253,261.383Z" transform="translate(-106.973 96.412)" fill="#0a8aae" stroke="#323254" stroke-miterlimit="10" stroke-width="0.68"/>
            <path id="Path_122" data-name="Path 122" d="M11.057-.158c5.112-1.082,8.378,2.185,7.3,7.3A15.782,15.782,0,0,1,7.138,18.353c-5.112,1.082-8.378-2.185-7.3-7.3A15.782,15.782,0,0,1,11.057-.158Z" transform="translate(399.649 430.361) rotate(-45)" fill="#eeebef"/>
            <path id="Path_109" data-name="Path 109" d="M538.635,289.094l-5.583-8.185c-7.282-10.694-16.966-16.663-27.038-16.666H320.46c-1.156,0-2.1-1.437-2.1-3.214h0c0-1.783.94-3.228,2.1-3.228h186.6c10.076,0,19.76,5.971,27.04,16.67l7.128,10.447a4,4,0,0,1,.378,3.384h0a2.19,2.19,0,0,1-1.353,1.588,1.494,1.494,0,0,1-1.622-.795Z" transform="translate(-89.508 107.245)" fill="#fff" stroke="#323254" stroke-miterlimit="10" stroke-width="1.14"/>
            <path id="Path_110" data-name="Path 110" d="M561.065,304.039h0c-2.035,0-3.685-2.536-3.685-5.664V282.544c0-3.128,1.65-5.664,3.685-5.664h0c2.035,0,3.685,2.536,3.685,5.664V298.29a7.52,7.52,0,0,1-1.06,4.06A3.223,3.223,0,0,1,561.065,304.039Z" transform="translate(-108.336 115.182)" fill="#667389" stroke="#323254" stroke-miterlimit="10" stroke-width="1.14"/>
            <path id="Path_111" data-name="Path 111" d="M563.37,304.051h0c-1.1,0-1.985-1.361-1.99-3.044V279.894c.005-1.684.894-3.044,1.99-3.044h0c1.092.008,1.976,1.366,1.981,3.044v21.1C565.35,302.676,564.465,304.043,563.37,304.051Z" transform="translate(-108.651 115.17)" fill="#f8e780" stroke="#323254" stroke-miterlimit="10" stroke-width="1.14"/>
            <line id="Line_8" data-name="Line 8" y2="46.926" transform="translate(377.952 383.17)" fill="none" stroke="#323254" stroke-miterlimit="10" stroke-width="1.14"/>
            <line id="Line_9" data-name="Line 9" x2="7.6" transform="translate(383.065 386.186)" fill="none" stroke="#323254" stroke-miterlimit="10" stroke-width="1.14"/>
            <line id="Line_10" data-name="Line 10" x2="17.678" transform="translate(245.148 378.199)" fill="none" stroke="#323254" stroke-miterlimit="10" stroke-width="1.14"/>
            <line id="Line_11" data-name="Line 11" x2="17.678" transform="translate(245.148 382.901)" fill="none" stroke="#323254" stroke-miterlimit="10" stroke-width="1.14"/>
            <line id="Line_12" data-name="Line 12" x2="17.678" transform="translate(245.148 387.602)" fill="none" stroke="#323254" stroke-miterlimit="10" stroke-width="1.14"/>
            <line id="Line_13" data-name="Line 13" x2="17.678" transform="translate(245.148 392.303)" fill="none" stroke="#323254" stroke-miterlimit="10" stroke-width="1.14"/>
            <line id="Line_14" data-name="Line 14" x2="17.678" transform="translate(245.148 397.004)" fill="none" stroke="#323254" stroke-miterlimit="10" stroke-width="1.14"/>
            <path id="Path_112" data-name="Path 112" d="M258.419,240.306c.372-8.817,3.388-16.868,8.162-21.789s10.766-6.151,16.213-3.331c5.214-8.049,12.487-12.117,19.848-11.1s14.046,7.008,18.245,16.355c4.566-3.056,9.811-2.536,14.083,1.4s7.045,10.8,7.446,18.426c0,.312,0,1.9,0,1.9-.309,3.125-2.052,5.439-4.109,5.452h-75.78c-2.056-.013-3.8-2.327-4.109-5.452C258.419,242.161,258.391,240.618,258.419,240.306Z" transform="translate(-84.786 84.835)" fill="#fbfaf6"/>
            <path id="Path_113" data-name="Path 113" d="M258.419,238.334a18.439,18.439,0,0,1,18.489-17.091,18.82,18.82,0,0,1,5.887.949,25.082,25.082,0,0,1,38.093,3.384,15.45,15.45,0,0,1,21.529,12.758c.019.405.019.812,0,1.218a4.157,4.157,0,0,1-4.109,3.512h-75.78a4.157,4.157,0,0,1-4.109-3.512Q258.4,238.943,258.419,238.334Z" transform="translate(-84.786 89.428)" fill="#eeebef"/>
            <path id="Path_114" data-name="Path 114" d="M258.419,240.306c.372-8.817,3.388-16.868,8.162-21.789s10.766-6.151,16.213-3.331c5.214-8.049,12.487-12.117,19.848-11.1s14.046,7.008,18.245,16.355c4.566-3.056,9.811-2.536,14.083,1.4s7.045,10.8,7.446,18.426c0,.312,0,1.9,0,1.9-.309,3.125-2.052,5.439-4.109,5.452h-75.78c-2.056-.013-3.8-2.327-4.109-5.452C258.419,242.161,258.391,240.618,258.419,240.306Z" transform="translate(-84.786 84.835)" fill="none" stroke="#323254" stroke-miterlimit="10" stroke-width="1.14"/>
            <path id="Path_115" data-name="Path 115" d="M258.429,373.656c.453-10.514,4.054-20.109,9.747-25.978s12.836-7.346,19.336-4c6.224-9.592,14.9-14.438,23.678-13.227s16.753,8.356,21.766,19.5c5.454-3.634,11.713-3,16.81,1.7s8.4,12.9,8.883,22c0,.368,0,2.266,0,2.266-.364,3.73-2.447,6.492-4.9,6.5H263.33c-2.454-.007-4.537-2.769-4.9-6.5C258.429,375.922,258.392,374.024,258.429,373.656Z" transform="translate(-84.786 137.392)" fill="#fbfaf6"/>
            <path id="Path_116" data-name="Path 116" d="M258.429,371.311a22.119,22.119,0,0,1,29.083-19.258,29.919,29.919,0,0,1,45.444,4.021,18.642,18.642,0,0,1,7.37-1.5,18.315,18.315,0,0,1,18.351,16.737q.026.707,0,1.416a5.017,5.017,0,0,1-4.9,4.248H263.33a4.954,4.954,0,0,1-4.9-4.248q-.026-.708,0-1.416Z" transform="translate(-84.787 142.867)" fill="#eeebef"/>
            <path id="Path_117" data-name="Path 117" d="M258.429,373.656c.453-10.514,4.054-20.109,9.747-25.978s12.836-7.346,19.336-4c6.224-9.592,14.9-14.438,23.678-13.227s16.753,8.356,21.766,19.5c5.454-3.634,11.713-3,16.81,1.7s8.4,12.9,8.883,22c0,.368,0,2.266,0,2.266-.364,3.73-2.447,6.492-4.9,6.5H263.33c-2.454-.007-4.537-2.769-4.9-6.5C258.429,375.922,258.392,374.024,258.429,373.656Z" transform="translate(-84.786 137.392)" fill="none" stroke="#323254" stroke-miterlimit="10" stroke-width="1.14"/>
            <path id="Path_118" data-name="Path 118" d="M603.3,195.072c-.366-8.827-3.384-16.888-8.165-21.809s-10.78-6.139-16.229-3.3c-5.215-8.049-12.487-12.117-19.848-11.1s-14.046,7.008-18.245,16.355a10.87,10.87,0,0,0-6.126-1.94c-8.044.005-14.737,9.509-15.375,21.835,0,.312,0,1.9,0,1.9.308,3.128,2.051,5.446,4.109,5.466h75.753c2.058-.02,3.8-2.338,4.109-5.466C603.28,197.012,603.326,195.384,603.3,195.072Z" transform="translate(-105.338 66.024)" fill="#fbfaf6"/>
            <path id="Path_119" data-name="Path 119" d="M603.3,193.114a18.443,18.443,0,0,0-18.48-17.105,18.843,18.843,0,0,0-5.9.963,25.093,25.093,0,0,0-38.093,3.37,15.607,15.607,0,0,0-6.154-1.26A15.355,15.355,0,0,0,519.3,193.114q-.021.608,0,1.218a4.157,4.157,0,0,0,4.109,3.512H599.17a4.157,4.157,0,0,0,4.109-3.512q.03-.608.018-1.218Z" transform="translate(-105.336 70.616)" fill="#eeebef"/>
            <path id="Path_120" data-name="Path 120" d="M603.3,195.072c-.366-8.827-3.384-16.888-8.165-21.809s-10.78-6.139-16.229-3.3c-5.215-8.049-12.487-12.117-19.848-11.1s-14.046,7.008-18.245,16.355a10.87,10.87,0,0,0-6.126-1.94c-8.044.005-14.737,9.509-15.375,21.835,0,.312,0,1.9,0,1.9.308,3.128,2.051,5.446,4.109,5.466h75.753c2.058-.02,3.8-2.338,4.109-5.466C603.28,197.012,603.326,195.384,603.3,195.072Z" transform="translate(-105.338 66.024)" fill="none" stroke="#323254" stroke-miterlimit="10" stroke-width="1.14"/>
            <line id="Line_15" data-name="Line 15" x2="39.797" transform="translate(185.95 435.462)" fill="none" stroke="#323254" stroke-linecap="round" stroke-linejoin="round" stroke-width="1.43"/>
            <line id="Line_16" data-name="Line 16" x2="10.493" transform="translate(208.99 419.688)" fill="none" stroke="#323254" stroke-linecap="round" stroke-linejoin="round" stroke-width="1.43"/>
            <line id="Line_17" data-name="Line 17" x2="26.393" transform="translate(194.545 406.165)" fill="none" stroke="#323254" stroke-linecap="round" stroke-linejoin="round" stroke-width="1.43"/>
            <line id="Line_18" data-name="Line 18" x2="8.171" transform="translate(192.233 393.62)" fill="none" stroke="#323254" stroke-linecap="round" stroke-linejoin="round" stroke-width="1.43"/>
            <line id="Line_19" data-name="Line 19" x2="45.039" transform="translate(473.926 397.471)" fill="none" stroke="#323254" stroke-linecap="round" stroke-linejoin="round" stroke-width="1.43"/>
            <line id="Line_20" data-name="Line 20" x2="14.601" transform="translate(469.946 381.385)" fill="none" stroke="#323254" stroke-linecap="round" stroke-linejoin="round" stroke-width="1.43"/>
            <line id="Line_21" data-name="Line 21" x2="18.701" transform="translate(492.986 416.148)" fill="none" stroke="#323254" stroke-linecap="round" stroke-linejoin="round" stroke-width="1.43"/>
            <line id="Line_22" data-name="Line 22" x2="18.683" transform="translate(477.067 431.597)" fill="none" stroke="#323254" stroke-linecap="round" stroke-linejoin="round" stroke-width="1.43"/>
            <line id="Line_23" data-name="Line 23" x2="6.495" transform="translate(510.784 435.462)" fill="none" stroke="#323254" stroke-linecap="round" stroke-linejoin="round" stroke-width="1.43"/>
            <text id="_-_Time_to_Travel_-" data-name="- Time to Travel -" transform="translate(233.771 123.966)" fill="#323254" font-size="28" font-family="SegoeUI, Segoe UI"><tspan x="0" y="0">- </tspan><tspan y="0" letter-spacing="-0.01em">T</tspan><tspan y="0">ime </tspan><tspan y="0" letter-spacing="-0.01em">t</tspan><tspan y="0">o </tspan><tspan y="0" letter-spacing="-0.04em">T</tspan><tspan y="0">r</tspan><tspan y="0" letter-spacing="-0.01em">av</tspan><tspan y="0">el -</tspan></text>
          </g>
        </g>
      </g>
    </g>
  </g>
</svg>
