<svg height="512pt" viewBox="-83 0 512 512.001" width="512pt" xmlns="http://www.w3.org/2000/svg"><path d="m305.523438 275.484375c-.046876-.019531-.09375-.039063-.144532-.058594l-8.574218-3.320312v-36.757813h27.71875c10.945312 0 19.847656-8.902344 19.847656-19.84375v-31.890625c0-10.941406-8.902344-19.84375-19.847656-19.84375h-61.148438c8.324219-8.515625 11.085938-20.816406 7.554688-31.921875 14.445312-1.804687 21.054687-19.574218 10.621093-30.378906l-20.277343-20.992188v-1.578124c0-26.332032-11.59375-51.136719-31.808594-68.050782-8.363282-6.996094-19.09375-10.847656-30.21875-10.847656-6.0625 0-46.929688 0-53.324219 0-11.125 0-21.855469 3.851562-30.21875 10.851562-20.171875 16.878907-31.757813 41.613282-31.804687 67.886719l-21.960938 22.730469c-10.457031 10.828125-3.796875 28.683594 10.753906 30.394531-3.714844 10.742188-1.003906 23.289063 7.421875 31.910157h-59.527343c-10.941407 0-19.84375 8.898437-19.84375 19.84375v31.886718c0 10.941406 8.898437 19.84375 19.84375 19.84375h27.71875v36.753906l-8.578126 3.328126c-.046874.019531-.09375.035156-.140624.054687-1.613282.664063-39.585938 16.785156-39.585938 61.128906v156.246094c0 10.554687 8.589844 19.140625 19.144531 19.140625h135.910157c4.140624 0 7.5-3.355469 7.5-7.5s-3.359376-7.5-7.5-7.5h-79.792969v-30.570312c31.621093-6.324219 54.945312-34.175782 54.945312-67.085938v-30.445312c4.386719-2.753907 7.320313-7.621094 7.320313-13.171876v-15.089843c0-5.550781-2.933594-10.417969-7.320313-13.171875v-15.984375c26.535157 13.53125 57.273438 13.984375 84.695313.003906v16.03125c-4.339844 2.761719-7.234375 7.605469-7.234375 13.121094v15.085937c0 5.515625 2.894531 10.359375 7.234375 13.121094v30.5c0 32.945312 23.359375 60.765625 54.945312 67.085938v30.570312h-79.792968c-4.144532 0-7.5 3.355469-7.5 7.5 0 4.140625 3.355468 7.5 7.5 7.5h135.910156c10.554687 0 19.144531-8.589844 19.144531-19.144531 0-10.167969 0-84.1875 0-100.1875 0-4.140625-3.359375-7.5-7.5-7.5-4.144531 0-7.5 3.359375-7.5 7.5v25.515625h-45.257813v-31.09375c0-4.144532-3.359374-7.5-7.503906-7.5-4.140625 0-7.5 3.355468-7.5 7.5v21.492187c-1.578125-2.386719-2.492187-5.222656-2.492187-8.210937v-31.378906c4.476562-2.734376 7.480469-7.652344 7.480469-13.269532v-15.085937c0-5.617188-3.003907-10.535157-7.480469-13.269531v-50.582032l32.507812 12.589844c1.335938.574219 30.246094 13.457031 30.246094 47.234375v21.058594c0 4.140625 3.355469 7.5 7.5 7.5 4.140625 0 7.5-3.359375 7.5-7.5v-21.058594c0-44.339844-37.96875-60.460937-39.585937-61.125zm-182.996094 65.152344v15.085937c0 .292969-.230469.53125-.519532.550782-33.71875.007812-26.734374.007812-36.027343.007812l-.097657-.007812c-.289062-.019532-.519531-.257813-.519531-.550782v-15.085937c0-.292969.230469-.53125.523438-.550781l.09375-.007813 36.011719.007813c.296874.011718.535156.253906.535156.550781zm-29.773438-15.558594v-54.117187c14.636719-5.675782 9.332032-3.621094 22.449219-8.703126v62.820313zm22.804688-160.894531v-32.179688h112.371094v31.566406c0 31.289063-26.140626 57.613282-59.035157 55.78125-31.742187-1.800781-53.335937-27.191406-53.335937-55.167968zm-26.03125-32.179688h11.027344v26.273438c-3.242188-.527344-6.207032-1.875-8.65625-3.980469-6.0625-5.214844-8.285157-14.890625-2.371094-22.292969zm162.066406 22.289063c-2.457031 2.109375-5.417969 3.457031-8.660156 3.984375v-26.273438h11.546875c4.796875 6.953125 3.679687 16.636719-2.886719 22.289063zm-121.386719 102.144531c1-.394531 2.421875-1.09375 3.652344-1.871094 11.921875-7.519531 10.4375-19.304687 10.4375-25.480468 16.496094 6.640624 37.507813 7.800781 56.410156-.472657v7.128907c0 9.117187 5.726563 17.445312 14.195313 20.730468v.339844c-20.644532 29.277344-64.046875 29.28125-84.695313.003906zm151.597657 9.859375c-7.414063-2.871094-53.664063-20.78125-61.472657-23.804687-2.636719-1.023438-4.625-3.511719-4.625-7.144532h66.097657zm47.5625-82.683594v31.890625c0 2.625-2.21875 4.84375-4.84375 4.84375-18.347657 0-97.253907 0-108.816407 0v-.664062c13.171875-10.230469 22.253907-24.734375 25.6875-40.910156h83.128907c2.625 0 4.84375 2.214843 4.84375 4.839843zm-83.152344-107.605469h-24.027344c-2.824219-22.65625-8.550781-44.429687-15.683594-60.195312 17.148438 3.871094 38.5 29.019531 39.710938 60.195312zm-56.90625-61.007812c7.800781 13.59375 14.542968 36.808594 17.753906 61.007812h-70.652344c3.183594-24.234374 9.910156-47.449218 17.714844-61.007812zm-52.613282 1.324219c-7.023437 15.707031-12.636718 37.253906-15.402343 59.683593h-22.339844c1.167969-30.101562 21.402344-54.90625 37.742187-59.683593zm-63.964843 95.570312 20.167969-20.882812h157.691406l20.171875 20.882812c1.855469 1.921875.511719 5.109375-2.171875 5.109375-21.230469 0-168.792969 0-193.691406 0-2.675782 0-4.035157-3.183594-2.167969-5.109375zm-56.988281 103.609375v-31.890625c0-2.625 2.21875-4.839843 4.84375-4.839843h81.5c3.542968 16.859374 13.167968 31.589843 26.597656 41.570312-11.257813 0-90.945313 0-108.097656 0-2.628907.003906-4.84375-2.214844-4.84375-4.839844zm47.5625 19.84375h65.988281c0 3.617188-1.972657 6.121094-4.621094 7.148438-21.933594 8.503906-38.070313 14.757812-61.367187 23.789062zm-18.058594 54.03125 32.507812-12.605468v50.648437c-4.425781 2.742187-7.390625 7.632813-7.390625 13.214844v15.085937c0 5.582032 2.960938 10.472656 7.390625 13.21875v31.429688c0 2.988281-.914062 5.824218-2.492187 8.210937v-16.144531c0-4.144531-3.359375-7.5-7.503907-7.5-4.140624 0-7.5 3.355469-7.5 7.5v25.746094h-45.257812v-81.574219c0-33.769531 28.5-46.488281 30.246094-47.230469zm-26.101563 207.621094c-2.285156 0-4.144531-1.859375-4.144531-4.144531v-59.667969h45.257812v63.8125zm96.0625-97.65625c0 24.796875-16.679687 45.75-39.945312 51.726562v-23.445312c10.539062-4.765625 17.492187-15.253906 17.492187-27.253906v-29.089844h22.453125zm15-105.101562v-15.578126c24.527344 20.144532 60.132813 20.171876 84.695313 0v15.582032c-26.445313 16.742187-58.265625 16.726562-84.695313-.003906zm129.117188 45.847656h.003906c.28125.027344.503906.257812.503906.546875v15.085937c0 .296875-.234375.535156-.527343.554688-.015626 0-.035157 0-.050782 0l-.078125.003906-35.96875-.003906c-.296875-.011719-.535156-.253906-.535156-.554688v-15.085937c0-.304688.246094-.554688.550781-.554688l35.953125-.003906zm70.785156 152.765625c0 .289062-.03125.566406-.085937.835937-.386719 1.886719-2.058594 3.308594-4.058594 3.308594h-41.113282c0-9.332031 0-54.496094 0-63.8125h45.257813zm-60.261719-65.230469v23.445312c-23.265625-5.976562-39.945312-26.929687-39.945312-51.726562v-28.0625h22.453125v29.089844c0 12 6.953125 22.488281 17.492187 27.253906zm-17.492187-156.644531v54.097656h-22.453125c0-5.984375 0-55.660156 0-62.792969 2.515625.972656 20.136718 7.796875 22.453125 8.695313zm0 0"/></svg>