<svg xmlns="http://www.w3.org/2000/svg" x="0px" y="0px"
	 viewBox="0 0 255 100" enable-background="new 0 0 255 100" xml:space="preserve">

 <g>
  <title>background</title>
  <rect fill="none" id="canvas_background" height="402" width="582" y="-1" x="-1"/>
 </g>
 <g>
  <title>Layer 1</title>
  <g id="svg_1">
   <rect id="svg_2" height="461.865" width="448.295" fill="#F3F4F4" transform="matrix(0.7071,0.7071,-0.7071,0.7071,78.7514,-88.307) " y="-162.481065" x="-64.676211"/>
   <rect id="svg_3" height="47.587" width="23.824" fill="#29b249" transform="matrix(0.7071,0.7071,-0.7071,0.7071,30.1288,-53.798) " y="14.900411" x="-1.041001"/>
   <rect id="svg_4" height="79.846" width="48.528" fill="#29b249" transform="matrix(0.7071,0.7071,-0.7071,0.7071,67.8495,-148.7645) " y="-3.179589" x="120.101999"/>
   <rect id="svg_6" height="73.095" width="34.792" fill="#4ab3f9" transform="matrix(0.7071,0.7071,-0.7071,0.7071,88.9665,-180.4892) " y="9.345012" x="176.063698"/>
   <rect id="svg_8" height="83.765" width="2" fill="#dddbdb" transform="matrix(0.7071,-0.7071,0.7071,0.7071,11.8483,149.2889) " y="-50.673001" x="155.907589"/>
   <rect id="svg_9" height="448.33" width="2" fill="#ECECEC" transform="matrix(0.7071,-0.7071,0.7071,0.7071,131.4838,169.7787) " y="-367.123001" x="240.458589"/>
   <rect id="svg_10" height="162.73" width="2" fill="#ECECEC" transform="matrix(0.7071,-0.7071,0.7071,0.7071,-28.7033,-14.8713) " y="-123.286001" x="-62.527411"/>
   <rect id="svg_11" height="2" width="301.287" fill="none" transform="matrix(0.7071,-0.7071,0.7071,0.7071,-69.3363,141.1781) " y="84.151999" x="-44.119411"/>
   <rect id="svg_12" height="2" width="372.598" fill="#ECECEC" transform="matrix(0.7071,-0.7071,0.7071,0.7071,-10.3491,248.6981) " y="65.9899" x="79.506589"/>
   <rect id="svg_13" height="2" width="461.907" fill="#ECECEC" transform="matrix(0.7071,-0.7071,0.7071,0.7071,-35.4387,219.9615) " y="82.625999" x="-12.380411"/>
   <rect id="svg_14" height="47.065" width="2" fill="#75BA98" transform="matrix(0.7071,-0.7071,0.7071,0.7071,57.7853,153.7561) " y="-85.541001" x="184.268589"/>
   <rect id="svg_15" height="135.409" width="2" fill="#ECECEC" transform="matrix(0.7071,-0.7071,0.7071,0.7071,34.9086,0.1602) " y="-178.896001" x="-12.576411"/>
   <rect id="svg_16" height="108.039" width="2" fill="#ECECEC" transform="matrix(0.7071,-0.7071,0.7071,0.7071,-7.6729,-28.8149) " y="-128.298001" x="-68.843411"/>
   <rect id="svg_17" height="4.999" width="461.959" fill="#FFFFFF" transform="matrix(0.7071,-0.7071,0.7071,0.7071,32.7425,55.3864) " y="-83.463001" x="-176.975411"/>
   <rect id="svg_18" height="4.999" width="461.947" fill="#FFFFFF" transform="matrix(0.7071,-0.7071,0.7071,0.7071,-5.2576,147.1383) " y="8.282999" x="-85.215411"/>
   <rect id="svg_19" height="2" width="268.7" fill="#dddbdb" transform="matrix(0.7071,-0.7071,0.7071,0.7071,-67.6466,104.5112) " y="63.778999" x="-71.241411"/>
   <rect id="svg_20" height="2" width="461.967" fill="#ECECEC" transform="matrix(0.7071,-0.7071,0.7071,0.7071,40.7667,36.006) " y="-101.340001" x="-196.361411"/>
   <rect id="svg_22" height="4.999" width="461.918" fill="#FFFFFF" transform="matrix(0.7071,-0.7071,0.7071,0.7071,-16.1056,173.3353) " y="34.475999" x="-59.002411"/>
   <rect id="svg_23" height="255.622" width="4.999" fill="#FFFFFF" transform="matrix(0.7071,-0.7071,0.7071,0.7071,-27.8972,183.5929) " y="-71.473001" x="175.943589"/>
   <path id="svg_24" d="m-98.38838,60.48799c-9.793,0 -17.894,-3.996 -22.398,-7.789l-0.252,-0.231l-115.57,-115.571l5.657,-5.656l115.427,115.427c1.761,1.401 20.604,15.461 42.108,-6.039l167,-167.001l5.657,5.656l-167,167.001c-10.645,10.645 -21.39,14.203 -30.629,14.203z" fill="#ffcd19"/>
   <rect id="svg_25" height="8" width="461.959" fill="#ffcd19" transform="matrix(0.707,-0.7072,0.7072,0.707,24.7136,74.7907) " y="-11.833607" x="-148.148007"/>
   <rect id="svg_26" height="8" width="461.959" fill="#FEE379" transform="matrix(0.707,-0.7072,0.7072,0.707,56.1491,-1.1106) " y="-141.462133" x="-233.459633"/>
   <rect id="svg_28" height="4.999" width="461.959" fill="#FFFFFF" transform="matrix(0.7071,-0.7071,0.7071,0.7071,8.8618,113.0396) " y="-80.173678" x="-131.577807"/>
   <rect id="svg_29" height="448.338" width="8" fill="#ffcd19" transform="matrix(0.7071,-0.7071,0.7071,0.7071,-46.1593,96.1916) " y="-186.030352" x="125.800181"/>
   <rect id="svg_30" height="448.338" width="8" fill="#ffcd19" transform="matrix(0.7071,-0.7071,0.7071,0.7071,33.4409,129.1632) " y="-268.929881" x="139.252469"/>
   <rect id="svg_31" height="448.338" width="8" fill="#FEE379" transform="matrix(0.7071,-0.7071,0.7071,0.7071,110.5052,161.0843) " y="-346.151001" x="216.474589"/>
   <rect id="svg_32" height="448.338" width="8" fill="#FEE379" transform="matrix(0.7071,-0.7071,0.7071,0.7071,-93.8072,76.4552) " y="-141.839001" x="12.161589"/>
   <circle id="svg_33" r="13.053" cy="22.649021" cx="64.213004" fill="#ffcd19"/>
   <circle id="svg_34" r="4.473" cy="22.912564" cx="64.148928" fill="#FFFFFF"/>
   <rect id="svg_35" height="182.267" width="4.999" fill="#FFFFFF" transform="matrix(0.7071,-0.7071,0.7071,0.7071,17.6033,232.8247) " y="-63.488691" x="198.776683"/>
   <rect id="svg_5" height="64.959" width="51.239" fill="#4ab3f9" transform="matrix(0.7071,0.7071,-0.7071,0.7071,85.8252,-2.9809) " y="-81.714258" x="125.414367"/>
   <rect id="svg_27" height="8" width="461.959" fill="#ffcd19" transform="matrix(0.707,-0.7072,0.7072,0.707,-25.4094,195.8132) " y="55.437867" x="-36.559633"/>
   <rect id="svg_36" height="79.846" width="48.528" fill="#29b249" transform="rotate(89.62677001953125 34.382625579833984,109.22805786132814) matrix(0.614187851368612,0.6194001318869878,-0.614187851368612,0.6194001318869878,57.951887921103044,-125.13754205837625) " y="168.451906" x="145.736211"/>
  </g>
 </g>
</svg>